<?xml version="1.0" standalone="no"?>
<!DOCTYPE svg PUBLIC "-//W3C//DTD SVG 20010904//EN"
 "http://www.w3.org/TR/2001/REC-SVG-20010904/DTD/svg10.dtd">
<svg version="1.0" xmlns="http://www.w3.org/2000/svg"
 width="2048.000000pt" height="2048.000000pt" viewBox="0 0 2048.000000 2048.000000"
 preserveAspectRatio="xMidYMid meet">

<g transform="translate(0.000000,2048.000000) scale(0.100000,-0.100000)"
fill="#000000" stroke="none">
<path d="M13806 16248 c-9 -21 -16 -46 -16 -57 0 -11 -5 -32 -11 -48 -10 -25
-39 -132 -105 -393 -13 -52 -26 -102 -28 -110 -2 -8 -16 -60 -31 -115 -15 -55
-34 -127 -42 -160 -7 -33 -23 -91 -33 -130 -11 -38 -31 -115 -46 -170 -14 -55
-30 -116 -36 -135 -14 -54 -26 -101 -37 -151 -5 -25 -14 -56 -19 -70 -5 -13
-15 -49 -22 -79 -7 -30 -18 -73 -25 -95 -7 -22 -20 -72 -29 -110 -8 -39 -19
-86 -25 -105 -24 -84 -84 -310 -96 -360 -8 -30 -25 -98 -40 -150 -61 -223 -76
-293 -65 -310 5 -8 33 8 85 51 43 35 116 96 164 134 47 39 115 94 151 124 36
29 85 70 109 90 25 20 66 54 91 76 57 49 75 64 170 140 41 32 93 75 116 95 22
19 60 51 84 70 41 32 126 102 225 185 22 18 63 51 90 73 96 77 117 100 110
125 -6 21 -32 86 -75 187 -29 67 -200 478 -220 530 -10 25 -42 101 -70 170
-29 69 -71 172 -95 230 -144 349 -195 472 -204 487 -8 16 -12 13 -25 -19z"/>
<path d="M9802 15968 c-71 -168 -171 -540 -207 -773 -8 -55 -19 -125 -25 -155
-16 -91 -47 -398 -54 -535 -8 -157 -36 -620 -45 -760 -6 -82 -15 -271 -21
-420 -5 -148 -13 -308 -16 -355 -3 -47 -10 -209 -14 -360 -5 -151 -13 -408
-19 -570 -34 -940 -50 -1728 -50 -2566 l-1 -611 56 -149 c30 -82 61 -162 68
-179 8 -16 23 -57 34 -90 12 -33 30 -85 42 -115 11 -30 31 -85 44 -121 13 -37
30 -82 38 -100 8 -19 23 -56 32 -84 10 -27 29 -79 43 -115 13 -36 28 -76 33
-90 5 -14 18 -50 30 -80 12 -30 25 -66 30 -80 5 -14 23 -63 40 -110 18 -47 47
-125 65 -175 18 -49 46 -124 62 -165 l28 -75 89 -3 c72 -2 92 0 107 14 11 9
19 21 19 27 0 5 16 44 36 86 20 42 47 103 60 136 29 71 35 85 63 147 12 27 37
87 57 134 20 48 39 94 44 103 23 45 70 153 70 162 0 5 18 45 40 89 22 44 40
84 40 90 0 6 13 39 29 73 15 34 45 103 66 152 20 50 41 98 46 107 10 20 111
252 141 323 11 28 42 97 68 155 27 58 53 119 58 135 6 17 36 86 66 153 31 68
77 174 102 235 25 62 59 140 75 173 16 34 29 64 29 68 0 3 14 35 30 71 17 36
30 67 30 70 0 4 95 220 148 335 16 36 33 76 36 90 4 14 18 48 31 75 71 150
185 426 185 449 0 22 -78 257 -124 376 -8 19 -35 94 -61 165 -26 72 -56 152
-67 179 -11 27 -26 68 -33 90 -14 42 -64 181 -130 361 -21 55 -56 154 -80 220
-23 66 -54 150 -69 186 -14 36 -26 70 -26 75 0 5 -11 38 -24 74 -13 36 -48
128 -76 205 -28 77 -57 156 -65 175 -7 19 -27 76 -45 125 -18 50 -38 106 -46
125 -7 19 -32 87 -55 150 -100 276 -151 417 -214 590 -76 206 -101 276 -204
565 -71 198 -182 503 -286 785 -53 143 -80 218 -197 540 -95 262 -98 270 -118
270 -4 0 -21 -33 -38 -72z"/>
<path d="M18970 15266 c-19 -13 -62 -52 -96 -87 -53 -57 -124 -125 -339 -327
-59 -56 -406 -389 -529 -507 -34 -33 -134 -127 -221 -210 -208 -196 -509 -484
-669 -640 -49 -48 -334 -319 -479 -456 -38 -35 -75 -76 -83 -91 -15 -28 -13
-106 15 -568 6 -91 15 -257 21 -370 6 -113 20 -340 30 -505 10 -165 21 -361
24 -435 3 -75 10 -201 15 -280 6 -80 13 -201 15 -270 3 -69 10 -190 15 -270 6
-80 15 -235 21 -345 20 -379 32 -503 47 -509 8 -3 44 10 81 29 61 32 91 50
202 120 83 52 321 213 385 260 39 29 80 57 92 63 12 7 28 18 36 26 8 8 32 27
54 43 75 52 198 147 237 183 125 113 300 299 374 397 20 27 43 56 50 64 19 21
122 166 163 229 79 120 193 335 276 520 64 142 146 398 178 555 3 17 10 50 16
75 40 185 61 462 74 1020 3 118 10 294 16 390 10 168 26 1921 18 1919 -2 0
-20 -11 -39 -23z"/>
<path d="M7796 6144 c-14 -13 -16 -64 -16 -403 0 -288 -3 -390 -12 -399 -9 -9
-156 -12 -597 -12 -621 0 -724 -6 -883 -49 -398 -108 -719 -401 -870 -796 -26
-68 -37 -107 -58 -210 -18 -89 -20 -139 -20 -450 0 -305 2 -363 19 -450 48
-246 144 -443 303 -620 197 -220 419 -348 723 -417 84 -18 762 -19 855 0 167
34 249 61 398 133 56 27 111 49 121 49 16 0 19 -10 23 -77 5 -68 8 -79 32
-100 l27 -23 322 2 322 3 3 1875 c1 1031 0 1885 -3 1898 -3 12 -20 31 -38 42
-30 19 -51 20 -334 20 -261 0 -304 -2 -317 -16z m-81 -1538 c64 -27 65 -32 65
-458 0 -428 -6 -493 -61 -625 -99 -236 -293 -406 -545 -474 -68 -19 -113 -22
-329 -26 -229 -4 -259 -3 -339 16 -215 51 -361 182 -433 388 l-28 78 0 305 c0
225 4 319 14 360 40 162 157 311 301 384 41 21 142 53 185 59 17 2 279 5 583
6 457 1 558 -1 587 -13z"/>
<path d="M2620 5315 c-301 -40 -531 -154 -746 -369 -221 -221 -345 -478 -374
-774 -13 -129 -12 -594 0 -704 25 -219 91 -397 218 -588 174 -261 433 -440
767 -528 100 -27 101 -27 480 -27 327 0 391 2 460 18 123 27 260 74 373 128
56 27 109 49 117 49 11 0 15 -13 15 -52 0 -67 30 -135 62 -143 13 -3 165 -4
338 -3 l315 3 2 1470 c2 1423 2 1471 -16 1492 -11 13 -31 27 -46 33 -41 16
-1843 11 -1965 -5z m1281 -733 l30 -34 -4 -446 c-3 -430 -4 -449 -25 -511
-104 -302 -332 -499 -641 -556 -119 -22 -495 -21 -594 1 -160 36 -304 138
-383 270 -78 132 -78 130 -82 492 -3 277 -1 331 13 380 65 224 246 392 465
432 25 4 303 7 618 6 l574 -1 29 -33z"/>
<path d="M10310 5315 c-200 -26 -392 -96 -545 -197 -77 -51 -208 -162 -249
-212 -20 -25 -43 -52 -51 -60 -68 -68 -180 -278 -224 -421 -53 -173 -56 -210
-56 -605 0 -354 6 -438 35 -535 82 -265 168 -415 339 -586 184 -184 373 -289
646 -356 45 -11 147 -16 404 -20 290 -4 361 -2 445 12 169 28 328 80 464 152
94 49 102 47 102 -29 0 -72 25 -124 62 -133 13 -3 165 -4 338 -3 l315 3 3
1463 c2 1629 7 1511 -66 1531 -57 16 -1839 12 -1962 -4z m1250 -710 c62 -32
60 -19 60 -477 0 -478 -2 -492 -88 -668 -39 -82 -59 -108 -141 -190 -136 -135
-244 -194 -425 -231 -124 -25 -500 -27 -609 -3 -206 46 -373 192 -439 382 -22
65 -23 77 -23 412 l0 345 33 76 c38 88 62 123 138 201 76 77 215 147 319 161
17 2 281 5 588 6 478 1 562 -1 587 -14z"/>
<path d="M13102 5318 c-9 -9 -12 -350 -12 -1474 l0 -1462 26 -31 26 -31 322 2
321 3 5 805 c7 908 3 867 86 1035 102 208 277 355 511 427 65 20 92 22 543 25
315 2 484 7 503 15 54 21 57 39 57 372 0 292 -1 306 -19 316 -31 16 -876 13
-1036 -4 -197 -21 -336 -62 -512 -148 -56 -28 -109 -48 -118 -44 -11 4 -15 21
-15 71 0 133 -5 135 -383 135 -214 0 -296 -3 -305 -12z"/>
<path d="M16985 5315 c-503 -64 -917 -413 -1071 -904 -8 -25 -24 -95 -34 -156
-29 -161 -29 -700 -1 -861 49 -280 161 -494 361 -695 191 -192 398 -303 670
-360 93 -20 956 -20 1050 0 271 56 475 165 660 350 111 112 127 130 186 222
79 122 142 276 181 444 21 88 31 689 14 830 -63 531 -439 963 -960 1102 -124
33 -269 43 -616 42 -207 -1 -379 -6 -440 -14z m827 -704 c69 -12 176 -54 233
-92 71 -48 161 -152 199 -231 59 -121 68 -197 64 -505 -4 -267 -4 -268 -34
-353 -55 -156 -158 -276 -297 -343 -125 -61 -175 -67 -544 -67 -295 0 -337 2
-413 20 -112 27 -200 77 -285 164 -76 76 -131 174 -156 276 -20 79 -20 591 0
675 30 125 110 260 194 326 76 61 189 113 277 129 64 11 693 12 762 1z"/>
<path d="M9365 1560 c-4 -7 -7 -170 -7 -362 1 -381 -1 -368 58 -368 49 0 54
12 54 146 0 85 4 125 13 132 6 5 62 12 122 14 130 4 179 25 230 96 27 40 30
51 30 125 0 75 -3 86 -30 126 -19 29 -48 54 -80 70 -46 24 -60 26 -216 29
-120 3 -169 0 -174 -8z m314 -106 c62 -24 88 -82 69 -150 -16 -58 -56 -77
-165 -78 -73 -1 -96 2 -103 14 -5 8 -10 56 -10 107 0 116 6 123 101 123 39 0
85 -7 108 -16z"/>
<path d="M9931 1556 c-7 -8 -11 -30 -9 -48 l3 -33 88 -5 c63 -4 90 -9 97 -20
6 -9 10 -143 10 -311 0 -328 -4 -309 66 -309 23 0 37 6 41 17 4 9 7 149 7 310
1 250 3 295 16 303 8 5 52 10 97 10 80 0 83 1 89 26 4 14 2 36 -5 50 l-11 24
-239 0 c-195 0 -241 -3 -250 -14z"/>
<path d="M10951 1557 c-9 -12 -65 -156 -91 -237 -4 -14 -38 -106 -75 -205 -90
-244 -97 -264 -90 -275 7 -12 85 -13 101 -2 6 4 21 34 33 67 12 33 28 63 34
67 21 13 251 9 270 -4 9 -7 25 -37 36 -67 21 -61 32 -71 81 -71 57 0 61 12 29
98 -15 42 -45 127 -67 187 -22 61 -45 122 -51 135 -5 14 -31 84 -57 155 -26
72 -53 138 -62 148 -18 20 -75 23 -91 4z m68 -225 c22 -41 79 -225 74 -238 -8
-21 -181 -20 -189 0 -3 8 8 55 26 103 56 157 67 175 89 135z"/>
<path d="M11693 1562 c-8 -5 -13 -44 -15 -112 l-3 -105 -30 3 c-16 2 -62 4
-102 5 -80 2 -109 -12 -150 -72 -39 -58 -44 -290 -7 -363 15 -30 59 -77 73
-78 3 -1 26 -5 51 -10 34 -7 60 -5 104 7 45 13 63 14 77 5 24 -15 72 -15 87 0
9 9 12 101 12 354 0 188 -3 349 -6 358 -7 17 -69 22 -91 8z m-68 -308 c9 -4
25 -24 35 -45 24 -47 27 -172 6 -224 -14 -33 -59 -65 -91 -65 -32 0 -77 32
-91 65 -18 44 -18 175 0 219 8 19 22 39 33 45 20 12 82 14 108 5z"/>
<path d="M13647 1564 c-4 -4 -7 -168 -7 -365 0 -316 2 -358 16 -363 20 -8 418
-8 438 0 11 4 16 19 16 45 0 54 -18 59 -199 59 -171 0 -161 -7 -161 111 0 97
1 98 157 103 73 2 137 7 143 11 11 7 13 44 4 69 -5 14 -27 16 -139 16 -165 0
-165 0 -165 108 0 42 5 84 10 92 7 12 43 16 177 20 l168 5 0 45 0 45 -226 3
c-124 1 -228 -1 -232 -4z"/>
<path d="M17184 1556 c-3 -8 -4 -29 -2 -48 l3 -33 87 -5 c47 -3 90 -9 95 -13
4 -5 10 -147 13 -315 l5 -307 50 0 50 0 5 308 c4 259 7 309 20 317 8 5 50 10
93 10 71 0 78 2 86 22 4 12 5 34 1 48 l-6 25 -247 3 c-207 2 -248 0 -253 -12z"/>
<path d="M17795 1557 c-3 -6 -4 -172 -3 -367 l3 -355 30 -3 c16 -2 46 2 66 8
29 10 41 10 60 -1 13 -7 49 -12 79 -12 136 0 197 97 188 298 -7 155 -56 224
-165 233 -29 3 -74 -1 -98 -8 -25 -7 -48 -10 -51 -7 -4 3 -8 51 -9 106 -2 56
-6 105 -10 111 -9 14 -85 12 -90 -3z m259 -308 c52 -24 75 -172 40 -259 -29
-73 -112 -90 -165 -34 -20 22 -24 38 -28 105 -4 101 4 145 34 175 27 27 77 32
119 13z"/>
<path d="M18347 1563 c-4 -3 -7 -167 -7 -364 0 -392 -4 -369 60 -369 38 0 50
23 50 98 0 53 4 64 30 92 16 17 35 30 42 28 7 -3 41 -49 75 -103 33 -54 67
-102 75 -106 18 -12 106 -11 113 1 3 6 -18 47 -48 93 -103 158 -127 198 -127
214 0 13 70 100 137 171 19 20 16 31 -12 38 -53 13 -92 -4 -142 -64 -84 -99
-116 -132 -130 -132 -10 0 -13 36 -13 179 0 214 -4 231 -58 231 -21 0 -42 -3
-45 -7z"/>
<path d="M12009 1351 c-42 -14 -79 -42 -79 -60 0 -10 11 -28 24 -40 l25 -23
46 22 c84 41 177 10 187 -61 7 -48 -3 -53 -119 -59 -120 -6 -151 -19 -180 -73
-33 -65 -9 -171 47 -205 43 -27 119 -33 187 -16 49 12 67 13 78 4 7 -6 31 -10
52 -8 l38 3 0 212 c0 199 -1 213 -21 240 -38 50 -79 67 -173 70 -47 1 -98 -1
-112 -6z m201 -316 c13 -33 -9 -88 -42 -106 -12 -7 -45 -12 -73 -12 -40 1 -53
5 -72 27 -30 35 -29 61 3 91 24 22 36 25 101 25 70 0 74 -1 83 -25z"/>
<path d="M12476 1344 c-14 -13 -16 -50 -16 -245 0 -140 4 -238 10 -250 7 -12
21 -19 40 -19 61 0 60 -3 60 177 0 179 9 218 55 243 23 12 80 10 116 -5 20 -8
79 40 79 65 0 44 -123 65 -199 34 -37 -14 -42 -14 -63 0 -29 20 -62 20 -82 0z"/>
<path d="M12978 1350 c-50 -15 -90 -52 -116 -108 -23 -50 -24 -63 -20 -168 4
-107 6 -117 34 -156 74 -106 246 -124 332 -35 58 60 82 168 63 287 -20 121
-98 191 -211 189 -30 0 -67 -4 -82 -9z m151 -118 c53 -52 51 -233 -3 -279 -40
-34 -73 -39 -113 -17 -50 26 -66 64 -66 159 -1 123 27 163 116 164 29 1 45 -6
66 -27z"/>
<path d="M14240 1350 c-13 -8 -15 -47 -16 -247 -1 -131 3 -246 8 -256 7 -14
19 -17 51 -15 l42 3 5 175 c3 114 9 183 18 197 34 60 111 71 164 24 l32 -29 6
-183 5 -184 38 -3 c65 -5 67 1 67 182 0 228 -22 296 -107 332 -43 19 -114 18
-162 -2 -37 -14 -42 -14 -63 0 -25 18 -65 21 -88 6z"/>
<path d="M14894 1341 c-81 -37 -124 -125 -124 -250 0 -178 77 -264 235 -264
71 0 148 26 175 58 16 19 4 49 -24 64 -20 11 -29 10 -64 -8 -48 -25 -111 -27
-152 -6 -34 18 -63 66 -58 98 3 21 8 22 163 27 l160 5 -1 75 c0 63 -4 81 -27
117 -45 71 -87 95 -170 100 -56 3 -81 0 -113 -16z m172 -105 c35 -35 47 -89
22 -99 -7 -2 -52 -5 -99 -6 -66 -2 -88 1 -98 13 -25 30 10 101 59 119 43 16
82 7 116 -27z"/>
<path d="M15348 1349 c-16 -9 -18 -32 -18 -253 0 -269 0 -270 62 -264 l33 3 5
165 c6 175 18 228 58 249 27 14 75 14 106 0 29 -14 67 5 87 42 29 54 -93 90
-186 55 -41 -16 -46 -16 -67 -2 -26 18 -55 20 -80 5z"/>
<path d="M15802 1343 c-44 -22 -69 -59 -88 -134 -33 -127 0 -283 69 -333 36
-26 126 -36 175 -19 58 20 62 18 62 -33 0 -39 -5 -51 -34 -80 -29 -29 -40 -34
-82 -34 -27 1 -60 7 -74 15 -35 20 -47 18 -75 -9 -31 -31 -24 -51 28 -77 53
-28 176 -30 229 -5 48 23 93 74 109 123 8 25 14 132 16 304 4 237 3 268 -12
283 -20 20 -64 21 -92 1 -19 -13 -25 -13 -57 0 -46 20 -133 19 -174 -2z m185
-107 c27 -23 28 -29 31 -125 l4 -101 -35 -35 c-19 -19 -44 -35 -55 -35 -38 0
-83 23 -96 49 -38 73 -26 214 21 251 36 28 94 27 130 -4z"/>
<path d="M16223 1353 c-7 -2 -13 -9 -13 -15 0 -6 39 -114 86 -241 85 -229 85
-231 73 -276 -16 -58 -37 -88 -69 -96 -37 -10 -50 -24 -50 -55 0 -40 21 -53
72 -45 80 14 101 40 160 199 16 44 36 99 43 121 8 22 23 65 35 95 11 30 32 87
47 125 14 39 31 86 39 105 21 55 18 79 -11 86 -13 3 -36 2 -51 -3 -24 -8 -32
-25 -78 -161 -38 -117 -54 -152 -67 -152 -13 0 -28 33 -64 145 -33 101 -54
150 -68 160 -21 15 -60 18 -84 8z"/>
<path d="M18892 948 c-7 -7 -12 -30 -12 -53 0 -23 5 -46 12 -53 13 -13 75 -16
102 -6 19 7 22 94 4 112 -16 16 -90 16 -106 0z"/>
<path d="M16747 944 c-4 -4 -7 -63 -7 -131 0 -142 2 -145 74 -82 l47 41 -3 87
-3 86 -50 3 c-28 2 -54 0 -58 -4z"/>
</g>
</svg>
